# xmcd
#
# Track frame offsets:
#	150
#	26967
#	52000
#	71698
#	98501
#	123921
#	151254
#	183661
#	213791
#	240470
#	268258
#	287839
#	319097
#	341820
#
# Disc length: 4627 seconds
#
# Revision: 1
# Processed by: cddbd v1.4PL0 Copyright (c) Steve Scherf et al.
# Submitted via: audiograbber 1.80
#
DISCID=d112110e
DTITLE=Leonard Cohen - Hit Collection
DYEAR=1900
DGENRE=
TTITLE0=First We Take Manhattan
TTITLE1=Everybody Knows
TTITLE2=I`m Your Man
TTITLE3=Take This Waltz
TTITLE4=Tower of Song
TTITLE5=Anthem
TTITLE6=Democracy
TTITLE7=The Future
TTITLE8=Closing Time
TTITLE9=Dance Me To The End of Love
TTITLE10=Suzanne
TTITLE11=Hallelujah
TTITLE12=Never Any Good
TTITLE13=The Great Event
EXTD=
EXTT0=
EXTT1=
EXTT2=
EXTT3=
EXTT4=
EXTT5=
EXTT6=
EXTT7=
EXTT8=
EXTT9=
EXTT10=
EXTT11=
EXTT12=
EXTT13=
PLAYORDER=
